<?xml version="1.0" encoding="UTF-8" standalone="no"?><!DOCTYPE svg PUBLIC "-//W3C//DTD SVG 1.1//EN" "http://www.w3.org/Graphics/SVG/1.1/DTD/svg11.dtd"><svg width="100%" height="100%" viewBox="0 0 4445 3334" version="1.1" xmlns="http://www.w3.org/2000/svg" xmlns:xlink="http://www.w3.org/1999/xlink" xml:space="preserve" xmlns:serif="http://www.serif.com/" style="fill-rule:evenodd;clip-rule:evenodd;stroke-linejoin:round;stroke-miterlimit:2;"><path d="M4248.15,3153.47c-125.396,60.332 -376.48,126.915 -379.011,127.586c-29.204,7.672 -46.133,35.813 -37.727,62.72c6.865,22.238 28.942,36.778 52.852,36.778c5.032,0 10.094,-0.59 15.126,-1.985c10.733,-2.763 264.348,-70.016 399.605,-135.097c26.936,-12.957 37.408,-43.62 23.358,-68.461c-13.963,-24.841 -47.297,-34.472 -74.203,-21.541Zm-2407.49,-22.669c-18.471,8.853 -37.464,18.779 -57.593,30.878c-6.661,4.023 -13.613,7.591 -20.419,11.159c-35.022,-59.259 -65.972,-123.24 -93.43,-184.136c24.026,-12.501 49.158,-22.936 74.871,-30.126c33.335,77.958 68.938,134.83 96.571,172.225Zm-268.944,78.226c-6.37,-3.165 -25.859,-12.93 -25.859,-58.589c-0,-34.632 13.991,-65.349 35.546,-92.443c23.356,50.755 49.507,103.067 78.448,153.098c-36.476,7.726 -68.501,7.726 -88.135,-2.066Zm95.931,-916.387c-15.474,-7.538 -31.589,-14.137 -48.78,-18.966c-16.056,-4.507 -32.171,-7.055 -48.286,-9.067c34.325,-61.03 89.328,-85.63 135.694,-94.992c-15.852,37.396 -28.941,78.306 -38.628,123.025Zm-107.741,168.818c-49.856,30.716 -102.156,102.342 -85.953,263.542c-233.922,33.828 -482.942,183.948 -607.67,259.196c-90.2,54.457 -172.664,99.257 -248.438,137.163c259.987,-167.879 522.24,-381.819 674.048,-602.224c83.482,-121.255 193.782,-176.813 294.949,-148.35c31.443,8.853 58.379,25.512 78.74,46.866c-0,0.053 0.058,0.107 0.058,0.107c6.109,6.438 11.694,13.091 16.493,20.308c-45.347,-5.822 -87.263,1.851 -122.227,23.392Zm23.359,256.943c-9.542,-88.152 3.955,-151.703 37.814,-172.574c8.027,-4.909 18.499,-6.734 29.814,-7.136c4.014,69.963 12.391,133.729 23.851,191.728c-29.523,-7.27 -60.182,-10.892 -91.479,-12.018Zm2923.86,184.591c-14.05,-24.76 -47.151,-34.552 -74.232,-21.407c-350.011,168.872 -701.855,273.333 -1017.51,302.091c-166.119,15.13 -319.295,-23.607 -400.391,-101.081c-47.558,-45.337 -66.901,-101.109 -57.594,-165.733c11.751,-81.069 81.823,-105.16 105.472,-107.225c25.569,-2.254 46.133,-20.549 49.42,-44.076c3.286,-23.5 -11.519,-45.98 -35.691,-54.109c-166.904,-56.281 -323.076,-21.595 -418.309,92.498c-57.884,69.238 -83.8,158.382 -76.064,240.766c-135.607,-82.92 -233.398,-198.864 -291.574,-345.872c-48.432,-122.569 -70.916,-228.077 -76.879,-319.448c-19.837,-302.278 147.503,-444.404 212.398,-487.273c117.369,-77.367 260.858,-90.109 342.973,-31.333c8.288,8.799 15.823,17.92 21.611,27.819c26.731,45.524 25.162,100.626 -4.363,155.136c-8.96,16.526 -7.447,36.27 3.957,51.534c11.372,15.21 31.094,23.929 50.845,21.622c147.59,-13.95 250.328,-95.234 275.023,-217.374c26.382,-130.805 -44.039,-270.087 -169.203,-340.935c-23.358,-104.194 -81.533,-186.282 -169.377,-238.433c-103.727,-61.63 -242.213,-77.688 -393.002,-46.074c-63.965,-73.008 -174.381,-115.957 -304.462,-116.614l-3.025,0c-168.708,0 -320.864,71.388 -405.481,187.288c-138.486,32.111 -280.113,117.553 -457.054,332.083c-46.918,56.899 -96.075,121.738 -148.579,198.327c-274.965,400.812 -709.244,758.273 -1222.9,1006.42c-26.934,12.957 -37.348,43.673 -23.212,68.461c9.803,17.303 28.943,27.228 48.78,27.228c8.582,0 17.336,-1.851 25.422,-5.821c530.588,-256.298 979.759,-626.367 1264.88,-1042.01c242.445,-353.41 405.86,-459.052 549,-489.849c5.235,-1.153 10.442,-1.985 15.62,-2.897c56.372,-10.194 110.038,-9.872 164.345,-9.148c97.764,1.315 136.1,65.671 150.208,103.925c15.707,42.547 15.417,89.681 2.007,128.069c-34.236,-43.539 -80.136,-70.607 -134.472,-78.226c-154.223,-21.809 -346.026,113.315 -554.847,390.163c-242.793,321.754 -468.513,557.102 -710.465,740.647c-23.415,17.759 -26.848,49.736 -7.503,71.412c19.343,21.756 54.073,24.787 77.43,6.948c249.892,-189.555 482.157,-431.367 730.826,-761.009c259.754,-344.369 407.751,-353.651 448.038,-347.803c41.1,5.741 71.701,37.047 90.899,92.926c5.438,15.935 19.052,28.355 36.329,33.238c17.395,4.882 36.099,1.556 50.351,-8.772c85.053,-62.291 116.787,-188.589 75.6,-300.294c-39.357,-106.554 -133.833,-171.098 -252.831,-172.708c-15.91,-0.214 -31.589,-0.241 -47.209,0c72.487,-47.681 161.03,-67.103 235.029,-67.103l2.239,-0c107.042,0.526 196.575,38.158 233.69,98.141c12.537,20.254 38.396,30.046 62.684,23.688c134.676,-35.008 256.261,-26.263 342.158,24.707c68.326,40.615 110.328,105.615 124.93,193.31c2.648,16.15 13.614,30.126 29.467,37.503c96.279,45.149 154.513,150.281 135.461,244.63c-10.384,51.667 -41.828,90.19 -90.899,112.938c7.65,-53.786 -2.153,-106.875 -29.524,-153.553c-52.882,-90.029 -164.985,-148.457 -315.805,-164.553c-143.198,-15.425 -287.502,28.114 -405.626,122.382c-16.173,12.93 -32.87,27.738 -49.565,44.263c-109.894,10.918 -252.685,77.528 -351.699,220.298c-102.854,-1.315 -259.258,40.964 -316.009,210.103c-92.614,24.842 -180.08,90.647 -249.804,191.862c-246.284,357.649 -839.963,725.062 -1173.83,852.782c-0.058,-0 -0.058,0.08 -0.117,0.08c-6.894,2.629 -12.973,6.466 -17.918,11.08c-1.513,1.395 -2.24,3.299 -3.52,4.828c-3.083,3.649 -6.225,7.217 -8.173,11.375c-2.646,5.928 -4.159,12.474 -4.217,19.341l-0,0.135c-0,4.909 1.657,9.389 3.083,13.896c0.581,1.851 0.348,3.702 1.134,5.526l0.088,0.08c0.291,0.591 0.785,1.127 1.047,1.717c2.442,4.829 5.759,9.309 9.686,13.145c1.221,1.261 2.734,2.254 4.102,3.434c3.489,2.79 7.358,5.231 11.518,7.136c1.803,0.805 3.432,1.663 5.236,2.253c6.02,2.119 12.304,3.568 19.139,3.568c12.537,0 313.42,-3.97 880.162,-345.872c376.394,-227.084 628.293,-297.798 778.938,-216.729c1.018,3.299 1.948,6.814 3.025,9.979c-136.479,39.247 -272.61,138.477 -272.61,288.007c0,87.669 45.435,128.767 83.54,147.867c96.076,47.778 234.389,2.039 323.833,-51.668c105.85,-63.766 171.704,-64.812 208.093,-54.833c-16.347,31.307 -18.471,66.53 -5.381,102.209c67.221,182.285 514.473,351.424 976.761,369.452c49.218,1.931 97.154,2.843 144.072,2.843c603.918,0 1018.07,-152.293 1264.82,-285.539c26.208,-14.218 35.022,-45.283 19.693,-69.453c-15.418,-24.251 -49.159,-32.299 -75.308,-18.162c-253.093,136.761 -691.617,294.07 -1348.71,268.961c-474.594,-18.483 -836.474,-190.467 -877.08,-300.75c-5.438,-14.674 -4.654,-26.96 15.765,-42.734c22.428,-17.33 26.209,-47.778 8.669,-69.373c-3.81,-4.695 -75.162,-88.339 -227.611,-55.906c-21.408,-26.504 -57.011,-77.045 -91.771,-153.232c1.368,-0.51 2.356,-1.583 3.666,-2.227c1.627,-0.858 3.431,-1.073 5.002,-2.065c1.426,-0.912 2.153,-2.307 3.433,-3.354c2.937,-2.253 5.468,-4.694 7.736,-7.404c2.095,-2.441 4.015,-5.016 5.673,-7.806c1.571,-2.897 2.734,-5.821 3.723,-8.906c1.076,-3.246 1.803,-6.546 2.153,-10.06c0.145,-1.502 0.93,-2.898 0.93,-4.48c-0,-1.663 -0.872,-3.112 -1.075,-4.695c-0.438,-3.568 -1.135,-7.002 -2.298,-10.167c-1.077,-3.058 -2.415,-5.955 -4.16,-8.799c-0.931,-1.636 -1.135,-3.353 -2.268,-4.963c-23.3,-30.904 -49.072,-56.147 -76.821,-76.508c-17.336,-63.498 -30.804,-137.083 -37.669,-220.459c8.232,-0.349 16.464,-1.663 23.852,-5.419c17.191,-8.719 28.011,-25.19 28.505,-43.217c1.426,-54.109 -17.189,-105.723 -50.059,-148.457c11.809,-92.363 38.89,-168.094 74.93,-228.346c0.639,-1.073 1.28,-1.985 1.919,-3.031c46.861,-77.045 107.596,-128.981 168.069,-160.18c-65.389,110.605 -116.7,263.971 -123.419,475.792c-8.901,282.91 130.022,557.316 381.194,752.746c236.19,183.814 545.393,278.886 894.269,278.886c125.252,-0.053 255.622,-12.286 389.454,-37.074c29.814,-5.553 49.071,-32.245 43.137,-59.715c-5.963,-27.497 -35.05,-45.337 -64.778,-39.784c-473.546,87.669 -896.277,9.658 -1191.08,-219.868c-225.399,-175.417 -350.098,-420.422 -342.158,-672.294c10.442,-331.52 136.829,-500.204 241.05,-583.338c46.657,-37.182 98.083,-64.437 151.692,-81.15c-9.193,5.312 -18.646,9.872 -27.662,15.801c-100.527,66.368 -410.136,329.105 -174.875,924.005c84.44,213.538 241.98,369.613 468.222,463.827c22.515,9.389 49.101,3.756 64.983,-13.815c15.765,-17.572 16.987,-42.681 2.792,-61.433c-51.078,-67.656 -41.333,-180.246 22.222,-256.298c26.006,-31.199 75.367,-72.807 155.968,-79.165c-26.004,29.482 -46.074,68.005 -53.084,116.695c-13.845,95.528 16.405,181.882 87.467,249.753c89.967,85.817 242.794,135.124 410.863,135.124c26.207,-0 52.793,-1.207 79.495,-3.648c329.563,-29.992 695.282,-138.29 1057.71,-313.171c26.935,-12.957 37.318,-43.619 23.212,-68.461Z" style="fill:#59595c;fill-rule:nonzero;"/><path d="M1671.65,1344.76c84.617,-115.9 236.773,-187.288 405.481,-187.288l3.025,0c130.081,0.657 240.497,43.606 304.462,116.614c150.789,-31.614 289.275,-15.556 393.002,46.074c87.844,52.151 146.019,134.239 169.377,238.433c125.164,70.848 195.585,210.13 169.203,340.935c-24.695,122.14 -127.433,203.424 -275.023,217.374c-19.751,2.307 -39.473,-6.412 -50.845,-21.622c-11.404,-15.264 -12.917,-35.008 -3.957,-51.534c29.525,-54.51 31.094,-109.612 4.363,-155.136c-5.788,-9.899 -13.323,-19.02 -21.611,-27.819c-82.115,-58.776 -225.604,-46.034 -342.973,31.333c-64.895,42.869 -232.235,184.995 -212.398,487.273c43.923,4.802 88.281,8.37 133.687,8.37c674.716,0 1221.68,-504.442 1221.68,-1126.57c-0,-622.389 -546.964,-1126.77 -1221.68,-1126.77c-674.717,-0 -1221.62,504.385 -1221.62,1126.77c-0,147.272 32.898,286.822 88.775,415.642c176.941,-214.53 318.568,-299.972 457.054,-332.083Z" style="fill:#ec2227;fill-rule:nonzero;"/><path d="M4599.86,2239.27c-0.126,-0.781 -0.294,-1.562 -0.441,-2.343c-0.524,-2.839 -1.279,-5.5 -2.181,-7.985c-0.126,-0.319 -0.168,-0.674 -0.294,-0.958c-1.07,-2.697 -2.37,-5.11 -3.776,-7.31c-0.377,-0.533 -0.734,-0.994 -1.069,-1.491c-1.385,-1.881 -2.916,-3.513 -4.51,-4.791c-0.168,-0.142 -0.294,-0.355 -0.42,-0.461l-0.419,-0.32l-0.042,0l-826.927,-625.73c-5.936,-4.472 -12.712,-4.472 -18.669,-0l-826.969,625.695l-0.021,0l-0.419,0.319c-0.168,0.107 -0.273,0.32 -0.441,0.462c-1.615,1.277 -3.083,2.945 -4.468,4.791c-0.357,0.497 -0.734,0.958 -1.07,1.49c-1.426,2.2 -2.706,4.578 -3.775,7.311c-0.105,0.319 -0.189,0.674 -0.315,0.993c-0.902,2.449 -1.615,5.146 -2.182,7.95c-0.167,0.781 -0.314,1.526 -0.44,2.342c-0.504,3.194 -0.86,6.494 -0.86,9.937l-0,287.598c-0,15.26 5.286,29.065 13.53,35.311l827.409,626.05c0.063,0.035 0.126,0.035 0.189,0.071c1.216,0.887 2.496,1.597 3.817,2.129c0.21,0.107 0.42,0.249 0.63,0.32c1.51,0.567 3.083,0.851 4.698,0.851c1.616,0 3.189,-0.319 4.699,-0.851c0.21,-0.071 0.42,-0.213 0.629,-0.32c1.322,-0.532 2.622,-1.206 3.818,-2.129c0.063,-0.036 0.126,-0.036 0.189,-0.071l827.43,-626.05c8.202,-6.246 13.53,-20.051 13.53,-35.311l-0,-287.598c-0,-3.407 -0.357,-6.707 -0.86,-9.901Zm-1230.93,304.987l178.004,-134.466l202.526,153.523l-177.669,134.43l-202.861,-153.487Zm200.03,-741.388l180.479,137.021l-202.085,153.132l-180.48,-137.269l202.086,-152.884Zm569.296,156.078l-179.536,135.566l-203.701,-154.659l178.865,-135.53l204.372,154.623Zm22.465,293.169l-202.609,153.31l-202.002,-153.629l202.61,-153.026l202.001,153.345Zm-613.367,-154.871l203.176,154.516l-203.596,153.772l-203.176,-154.02l203.596,-154.268Zm383.404,599.257l-175.697,-133.188l203.071,-153.665l175.383,133.401l-202.757,153.452Zm411.115,-311.091l-175.551,-133.259l179.683,-135.956l175.886,133.046l-180.018,136.169Zm-1184.68,-271.025l180.942,137.163l-177.879,134.784l-181.256,-137.127l178.193,-134.82Zm570.387,988.813l-781.681,-591.45l0,-35.027l781.681,591.414l0,35.063Zm0,-68.954l-781.681,-591.45l0,-133.933l781.681,591.485l0,133.898Zm827.41,-522.496l-781.682,591.45l0,-35.028l781.703,-591.449l-0,35.027l-0.021,0Zm-0,-68.954l-781.682,591.45l0,-133.898l781.703,-591.485l-0,133.933l-0.021,0Z" style="fill:#58585c;fill-rule:nonzero;stroke:#57575a;stroke-width:5.56px;"/></svg>